<svg id="Group_468" data-name="Group 468" xmlns="http://www.w3.org/2000/svg" width="95.366" height="138.469" viewBox="0 0 95.366 138.469">
  <g id="Group_432" data-name="Group 432" transform="translate(17.241 49.03)">
    <rect id="Rectangle_93" data-name="Rectangle 93" width="60.883" height="5.388" fill="#db9ac4"/>
  </g>
  <g id="Group_433" data-name="Group 433" transform="translate(17.241 63.397)">
    <rect id="Rectangle_94" data-name="Rectangle 94" width="51.185" height="5.388" transform="translate(0 0)" fill="#14978a"/>
  </g>
  <g id="Group_434" data-name="Group 434" transform="translate(17.241 77.765)">
    <rect id="Rectangle_95" data-name="Rectangle 95" width="33.405" height="5.388" fill="#265ca8"/>
  </g>
  <g id="Group_435" data-name="Group 435" transform="translate(17.241 92.133)">
    <rect id="Rectangle_96" data-name="Rectangle 96" width="44.181" height="5.388" transform="translate(0 0)" fill="#ea3716"/>
  </g>
  <g id="Group_450" data-name="Group 450" transform="translate(0 21.013)">
    <path id="Path_693" data-name="Path 693" d="M475.366,361.456H380V244h31.789v9.159h31.789V244h31.789Zm-89.978-5.388h84.59V249.388H448.965v9.159H406.4v-9.159H385.388Z" transform="translate(-380 -244)"/>
  </g>
  <g id="Group_451" data-name="Group 451" transform="translate(63.577 108.297)">
    <path id="Path_694" data-name="Path 694" d="M515.241,423.241H498V406h17.241Zm-11.853-5.388h6.465v-6.465h-6.465Z" transform="translate(-498 -406)"/>
  </g>
  <g id="Group_472" data-name="Group 472" transform="translate(26.401)">
    <path id="Path_692" data-name="Path 692" d="M471.564,240.56H429v-26.4h9.738a11.855,11.855,0,0,1,23.089,0h9.738Zm-37.176-5.388h31.789V219.547h-9.429v-2.694a6.465,6.465,0,1,0-12.931,0v2.694h-9.429Z" transform="translate(-429 -205)" fill="#040505"/>
  </g>
</svg>
