<svg xmlns="http://www.w3.org/2000/svg" width="121.755" height="121.766" viewBox="0 0 121.755 121.766">
  <g id="Group_473" data-name="Group 473" transform="translate(-825.851 -238)">
    <g id="Group_473-2" data-name="Group 473" transform="translate(871.907 238)">
      <path id="Path_705" data-name="Path 705" d="M926.159,267.641a14.821,14.821,0,1,0-14.82-14.82A14.837,14.837,0,0,0,926.159,267.641Zm0-24.169a9.349,9.349,0,1,1-9.348,9.349A9.359,9.359,0,0,1,926.159,243.472Z" transform="translate(-911.339 -238)"/>
    </g>
    <g id="Group_474" data-name="Group 474" transform="translate(917.963 238)">
      <path id="Path_706" data-name="Path 706" d="M1011.648,267.641a14.821,14.821,0,1,0-14.821-14.82A14.838,14.838,0,0,0,1011.648,267.641Zm0-24.169a9.349,9.349,0,1,1-9.349,9.349A9.36,9.36,0,0,1,1011.648,243.472Z" transform="translate(-996.827 -238)"/>
    </g>
    <g id="Group_475" data-name="Group 475" transform="translate(917.963 284.058)">
      <path id="Path_707" data-name="Path 707" d="M1011.648,323.491a14.82,14.82,0,1,0,14.821,14.821A14.838,14.838,0,0,0,1011.648,323.491Zm0,24.168a9.348,9.348,0,1,1,9.349-9.347A9.357,9.357,0,0,1,1011.648,347.659Z" transform="translate(-996.827 -323.491)"/>
    </g>
    <g id="Group_476" data-name="Group 476" transform="translate(825.851 330.114)">
      <path id="Path_708" data-name="Path 708" d="M840.671,408.979a14.82,14.82,0,1,0,14.82,14.821A14.837,14.837,0,0,0,840.671,408.979Zm0,24.169a9.348,9.348,0,1,1,9.348-9.348A9.358,9.358,0,0,1,840.671,433.148Z" transform="translate(-825.851 -408.979)"/>
    </g>
    <g id="Group_477" data-name="Group 477" transform="translate(826.114 238)">
      <path id="Path_709" data-name="Path 709" d="M841.159,267.641a14.821,14.821,0,1,0-14.82-14.82A14.837,14.837,0,0,0,841.159,267.641Zm0-24.169a9.349,9.349,0,1,1-9.348,9.349A9.359,9.359,0,0,1,841.159,243.472Z" transform="translate(-826.339 -238)" fill="#265ca8"/>
    </g>
    <g id="Group_478" data-name="Group 478" transform="translate(837.935 267.377)">
      <path id="Path_710" data-name="Path 710" d="M851.28,308.945a14.832,14.832,0,0,1,2.472.21V292.583a14.836,14.836,0,0,1-2.472.21l-3-.264v16.722A14.829,14.829,0,0,1,851.28,308.945Z" transform="translate(-848.281 -292.529)"/>
      <path id="Path_711" data-name="Path 711" d="M872.383,370.615c.082-.079.166-.154.246-.235C872.547,370.459,872.467,370.538,872.383,370.615Z" transform="translate(-859.398 -328.438)"/>
    </g>
    <g id="Group_479" data-name="Group 479" transform="translate(826.114 283.793)">
      <path id="Path_712" data-name="Path 712" d="M841.159,352.641a14.821,14.821,0,1,0-14.82-14.82A14.837,14.837,0,0,0,841.159,352.641Zm0-24.169a9.349,9.349,0,1,1-9.348,9.349A9.359,9.359,0,0,1,841.159,328.472Z" transform="translate(-826.339 -323)" fill="#db9ac4"/>
    </g>
    <path id="Path_713" data-name="Path 713" d="M897.513,351.4l.044.016a14.764,14.764,0,0,1-.1-5.488H880.884a14.8,14.8,0,0,1-.1,5.472Z" transform="translate(-25.34 -49.78)"/>
    <g id="Group_480" data-name="Group 480" transform="translate(871.907 283.793)">
      <path id="Path_714" data-name="Path 714" d="M926.159,352.641a14.821,14.821,0,1,0-14.82-14.82A14.837,14.837,0,0,0,926.159,352.641Zm0-24.169a9.349,9.349,0,1,1-9.348,9.349A9.359,9.359,0,0,1,926.159,328.472Z" transform="translate(-911.339 -323)" fill="#14978a"/>
    </g>
    <g id="Group_481" data-name="Group 481" transform="translate(876.142 311.269)">
      <path id="Path_715" data-name="Path 715" d="M936.448,392.856a14.842,14.842,0,0,1,2.86.28c-.042-.008-.082-.02-.125-.029V374l-4.268.539-1.078,1.077.21.346c-.112-.018-.224-.034-.335-.055v17.2c-.023,0-.044.011-.066.016A14.827,14.827,0,0,1,936.448,392.856Z" transform="translate(-925.863 -374)"/>
      <path id="Path_716" data-name="Path 716" d="M962.088,421.82l-.018-.027Z" transform="translate(-938.974 -396.045)"/>
      <path id="Path_717" data-name="Path 717" d="M959.66,418.554l-.081-.094Z" transform="translate(-937.825 -394.507)"/>
      <path id="Path_718" data-name="Path 718" d="M919.314,417.061c-.039.039-.075.08-.114.119C919.239,417.141,919.275,417.1,919.314,417.061Z" transform="translate(-919.2 -393.862)"/>
    </g>
    <g id="Group_482" data-name="Group 482" transform="translate(871.907 330.125)">
      <path id="Path_719" data-name="Path 719" d="M926.159,438.641a14.821,14.821,0,1,0-14.82-14.82A14.837,14.837,0,0,0,926.159,438.641Zm0-24.169a9.349,9.349,0,1,1-9.348,9.349A9.359,9.359,0,0,1,926.159,414.472Z" transform="translate(-911.339 -409)" fill="#ea3716"/>
    </g>
    <g id="Group_483" data-name="Group 483" transform="translate(901.288 342.199)">
      <path id="Path_720" data-name="Path 720" d="M982.542,436.884a14.668,14.668,0,0,1,0-5.473H965.874a14.685,14.685,0,0,1,0,5.473Z" transform="translate(-965.874 -431.411)"/>
    </g>
    <g id="Group_484" data-name="Group 484" transform="translate(917.7 330.125)">
      <path id="Path_721" data-name="Path 721" d="M1011.159,438.641a14.821,14.821,0,1,0-14.82-14.82A14.837,14.837,0,0,0,1011.159,438.641Zm0-24.169a9.349,9.349,0,1,1-9.348,9.349A9.359,9.359,0,0,1,1011.159,414.472Z" transform="translate(-996.339 -409)" fill="#265ca8"/>
    </g>
  </g>
</svg>
