<svg xmlns="http://www.w3.org/2000/svg" width="225.133" height="112.384" viewBox="0 0 225.133 112.384">
  <g id="Padrão_Form_baixo" transform="translate(-2337.793 1718.674) rotate(90)">
    <rect id="Rectangle_86" data-name="Rectangle 86" width="56.228" height="56.228" transform="translate(-1718.672 -2394.032)" fill="#265ca8"/>
    <path id="Path_652" data-name="Path 652" d="M-2016.444-2337.841h0v56.229h-56.229A56.23,56.23,0,0,1-2016.444-2337.841Z" transform="translate(354 -56.192)" fill="#db9ac4"/>
    <path id="Path_654" data-name="Path 654" d="M-1960.289-2297.483v15.882a56.3,56.3,0,0,1-56.229-56.251h15.876A40.407,40.407,0,0,0-1960.289-2297.483Z" transform="translate(354 -56.192)" fill="#14978a"/>
    <path id="Path_659" data-name="Path 659" d="M-2185.214-2434.426v-15.883a56.3,56.3,0,0,1,56.228,56.251h-15.876A40.406,40.406,0,0,0-2185.214-2434.426Z" transform="translate(522.685 -56.276)" fill="#fff"/>
    <rect id="Rectangle_90" data-name="Rectangle 90" width="56.24" height="56.34" transform="translate(-1662.529 -2562.926)" fill="#ea3716"/>
  </g>
</svg>
