<svg xmlns="http://www.w3.org/2000/svg" width="27.914" height="19.495" viewBox="0 0 27.914 19.495">
  <g id="Group_355" data-name="Group 355" transform="translate(0 -3)">
    <path id="Path_609" data-name="Path 609" d="M435.47,4201.326a1.941,1.941,0,0,1-1.377-.48,1.776,1.776,0,0,1-.606-1.352q0-7.9,0-15.808a1.816,1.816,0,0,1,1.676-1.842,3.213,3.213,0,0,1,.336-.013h23.913a1.856,1.856,0,0,1,1.958,1.52,2.357,2.357,0,0,1,.029.437q0,7.789,0,15.579a1.836,1.836,0,0,1-1.963,1.956l-23.964,0Zm-.52-1.693c.063.145.171.259.478.259h24.036l.064,0,.093-.039a.937.937,0,0,0,.254-.13.6.6,0,0,0,.066-.071.622.622,0,0,0-.087-.084l-8.605-7.066s-1.758,1.444-2.357,1.938a2.131,2.131,0,0,1-2.905-.006l-2.352-1.931-1.966,1.615Q438.311,4196.879,434.95,4199.632Zm-.011-1.84,7.566-6.214-7.566-6.215Zm25-.005v-12.419l-7.56,6.211Zm-24.952-14.227a1.264,1.264,0,0,1,.138.1q4.493,3.7,8.993,7.393l2.746,2.255a.755.755,0,0,0,1.151.005l6.542-5.375q2.668-2.192,5.342-4.378a.393.393,0,0,0,.041-.039c-.005-.006-.016-.026-.034-.054-.078-.122-.187-.2-.465-.2-2.285,0-9.424,0-9.424,0H435.5a1.269,1.269,0,0,0-.277.019.36.36,0,0,0-.283.251Z" transform="translate(-433.485 -4178.831)" fill="#040505"/>
  </g>
</svg>
