<svg id="Group_73" data-name="Group 73" xmlns="http://www.w3.org/2000/svg" width="28.085" height="28.099" viewBox="0 0 28.085 28.099">
  <g id="Group_352" data-name="Group 352" transform="translate(0 0)">
    <g id="Group_351" data-name="Group 351">
      <path id="Path_605" data-name="Path 605" d="M1160.186,4178.907a4.533,4.533,0,0,1,4.528,4.528v15.718a4.539,4.539,0,0,1-4.528,4.541h-15.719a4.539,4.539,0,0,1-4.527-4.541v-15.718a4.533,4.533,0,0,1,4.527-4.528h15.719m0-1.655h-15.719a6.2,6.2,0,0,0-6.183,6.184v15.718a6.2,6.2,0,0,0,6.183,6.2h15.719a6.211,6.211,0,0,0,6.183-6.2v-15.718a6.208,6.208,0,0,0-6.183-6.184Z" transform="translate(-1138.284 -4177.252)" fill="#040505"/>
    </g>
    <path id="Path_606" data-name="Path 606" d="M1154.772,4188.741v-1.359a.715.715,0,0,1,.75-.806h1.9v-2.9H1154.8a3.286,3.286,0,0,0-3.552,3.537v1.528h-1.683v3.381h1.7v8.447h3.381v-8.447h2.505l.113-1.33.2-2.052Z" transform="translate(-1139.378 -4177.875)" fill="#040505"/>
  </g>
</svg>
