<svg xmlns="http://www.w3.org/2000/svg" width="246.461" height="462.073" viewBox="0 0 246.461 462.073">
  <g id="Group_72" data-name="Group 72" transform="translate(246.461 462.073) rotate(180)">
    <path id="Path_87" data-name="Path 87" d="M69.374,231.036H0C0,103.642,110.222,0,245.7,0V65.232C148.475,65.232,69.374,139.611,69.374,231.036Z" fill="#265ca8"/>
    <rect id="Rectangle_65" data-name="Rectangle 65" width="246.299" height="231.036" transform="translate(246.461 462.073) rotate(180)" fill="#265ca8"/>
    <path id="Rectangle_66" data-name="Rectangle 66" d="M231.036,0H246.3a0,0,0,0,1,0,0V231.036a0,0,0,0,1,0,0H0a0,0,0,0,1,0,0v0A231.036,231.036,0,0,1,231.036,0Z" transform="translate(246.461 462.073) rotate(180)" fill="#db9ac4"/>
  </g>
</svg>
