<svg xmlns="http://www.w3.org/2000/svg" width="493.207" height="462.491" viewBox="0 0 493.207 462.491">
  <g id="Group_71" data-name="Group 71" transform="translate(-1151.931 -1530.383)">
    <rect id="Rectangle_62" data-name="Rectangle 62" width="246.522" height="231.246" transform="translate(1151.931 1530.383)" fill="#ea3716"/>
    <path id="Rectangle_63" data-name="Rectangle 63" d="M231.246,0h15.276a0,0,0,0,1,0,0V231.246a0,0,0,0,1,0,0H0a0,0,0,0,1,0,0v0A231.246,231.246,0,0,1,231.246,0Z" transform="translate(1151.931 1530.383)" fill="#265ca8"/>
    <rect id="Rectangle_64" data-name="Rectangle 64" width="246.522" height="231.246" transform="translate(1398.615 1530.383)" fill="#db9ac4"/>
    <path id="Path_85" data-name="Path 85" d="M1535.965,1890.383l.162,231.246,246.36-231.246Z" transform="translate(-137.35 -128.754)" fill="#ea3716"/>
    <path id="Path_86" data-name="Path 86" d="M1782.713,1530.383c-130.786.019-238.1,102.412-246.015,231.246h69.8c7.771-90.427,83.845-161.642,176.251-161.642v-69.6Z" transform="translate(-137.612)" fill="#fff"/>
  </g>
</svg>
