<svg xmlns="http://www.w3.org/2000/svg" width="27.595" height="27.596" viewBox="0 0 27.595 27.596">
  <path id="Path_89" data-name="Path 89" d="M1146.764,4149.608a5.588,5.588,0,1,1,5.582,5.594,5.594,5.594,0,0,1-5.582-5.594Zm12.866-13.79h-14.553a6.539,6.539,0,0,0-6.522,6.521v14.553a6.549,6.549,0,0,0,6.522,6.522h14.553a6.539,6.539,0,0,0,6.521-6.522v-14.553a6.528,6.528,0,0,0-6.521-6.521Zm-14.553,1.63h14.553a4.9,4.9,0,0,1,4.891,4.891v14.553a4.9,4.9,0,0,1-4.891,4.891h-14.553a4.9,4.9,0,0,1-4.891-4.891v-14.553a4.9,4.9,0,0,1,4.891-4.891Zm16,2.057a1.432,1.432,0,1,0,1.432,1.431,1.43,1.43,0,0,0-1.432-1.431Zm-1.677,10.1a7.055,7.055,0,1,0-7.055,7.056,7.055,7.055,0,0,0,7.055-7.056Z" transform="translate(-1138.555 -4135.818)" fill="#040505"/>
</svg>
