<svg xmlns="http://www.w3.org/2000/svg" width="238.815" height="57.631" viewBox="0 0 238.815 57.631">
  <g id="Group_32" data-name="Group 32" transform="translate(0 0)">
    <g id="Group_19" data-name="Group 19">
      <g id="Group_17" data-name="Group 17" transform="translate(65.852 9.899)">
        <g id="Group_10" data-name="Group 10" transform="translate(46.368 19.392)">
          <g id="Group_9" data-name="Group 9">
            <rect id="Rectangle_12" data-name="Rectangle 12" width="22.024" height="6.19" fill="#fff"/>
          </g>
        </g>
        <g id="Group_11" data-name="Group 11" transform="translate(0 0.134)">
          <path id="Path_7" data-name="Path 7" d="M4223.227-601.841h-19.961v33.379h19.961a16.708,16.708,0,0,0,16.689-16.689A16.708,16.708,0,0,0,4223.227-601.841Zm0,26.188h-12.77v-19h12.77a9.509,9.509,0,0,1,9.5,9.5A9.509,9.509,0,0,1,4223.227-575.653Z" transform="translate(-4203.266 601.841)" fill="#fff"/>
        </g>
        <g id="Group_12" data-name="Group 12" transform="translate(41.285)">
          <path id="Path_8" data-name="Path 8" d="M4305.592-568.556H4298.4v-19.629a4.92,4.92,0,0,0-1.669-3.7c-7.487-6.552-16.138-1.309-16.138,5.915v17.419H4273.4v-19.837a12.128,12.128,0,0,1,5.049-9.884c13.02-9.282,27.14-.108,27.14,12.3Z" transform="translate(-4273.403 602.069)" fill="#fff"/>
        </g>
        <g id="Group_14" data-name="Group 14" transform="translate(145.856 19.392)">
          <g id="Group_13" data-name="Group 13">
            <rect id="Rectangle_13" data-name="Rectangle 13" width="22.024" height="6.19" fill="#fff"/>
          </g>
        </g>
        <g id="Group_15" data-name="Group 15" transform="translate(140.774)">
          <path id="Path_9" data-name="Path 9" d="M4474.605-568.556h-7.192v-19.629a4.921,4.921,0,0,0-1.668-3.7c-7.488-6.552-16.138-1.309-16.138,5.915v17.419h-7.191v-19.837a12.13,12.13,0,0,1,5.049-9.884c13.02-9.282,27.14-.108,27.14,12.3Z" transform="translate(-4442.416 602.069)" fill="#fff"/>
        </g>
        <g id="Group_16" data-name="Group 16" transform="translate(79.405 0.086)">
          <path id="Path_10" data-name="Path 10" d="M4366.624-566.7a8.972,8.972,0,0,1-8.925-7.173l-3.851-17.481a4.324,4.324,0,0,0-4.2-3.373,4.3,4.3,0,0,0-4.3,4.3V-568.5h-7.191v-21.934a11.5,11.5,0,0,1,11.489-11.489,11.526,11.526,0,0,1,7.2,2.534,11.523,11.523,0,0,1,4.023,6.483l3.851,17.481a1.838,1.838,0,0,0,1.9,1.529,1.839,1.839,0,0,0,1.9-1.529l3.851-17.481a11.528,11.528,0,0,1,4.023-6.483,11.528,11.528,0,0,1,7.2-2.534,11.5,11.5,0,0,1,11.489,11.489V-568.5h-7.192v-21.934a4.3,4.3,0,0,0-4.3-4.3,4.324,4.324,0,0,0-4.2,3.373l-3.852,17.481A8.972,8.972,0,0,1,4366.624-566.7Z" transform="translate(-4338.161 601.923)" fill="#fff"/>
        </g>
      </g>
      <g id="Group_18" data-name="Group 18">
        <rect id="Rectangle_14" data-name="Rectangle 14" width="32.043" height="32.044" rx="16.022" transform="translate(10.634 10.634)" fill="#fff"/>
        <path id="Path_11" data-name="Path 11" d="M4118.052-618.886H4091.4v26.656A26.656,26.656,0,0,1,4118.052-618.886Z" transform="translate(-4091.396 618.886)" fill="#265ca8"/>
        <path id="Path_12" data-name="Path 12" d="M4136.679-618.886a26.656,26.656,0,0,1,26.656,26.656v-26.656Z" transform="translate(-4110.023 618.886)" fill="#14978a"/>
        <path id="Path_13" data-name="Path 13" d="M4091.4-573.6v26.656h26.656A26.656,26.656,0,0,1,4091.4-573.6Z" transform="translate(-4091.396 600.258)" fill="#db9ac4"/>
        <path id="Path_14" data-name="Path 14" d="M4136.679-546.946h26.656V-573.6A26.656,26.656,0,0,1,4136.679-546.946Z" transform="translate(-4110.023 600.258)" fill="#ea3716"/>
      </g>
    </g>
    <g id="Group_22" data-name="Group 22" transform="translate(145.257 45.897)">
      <g id="Group_20" data-name="Group 20" transform="translate(0 0.767)">
        <path id="Path_15" data-name="Path 15" d="M4338.161-535.372h.863v.42a4.287,4.287,0,0,1,.881-.4,2.989,2.989,0,0,1,.9-.134,1.786,1.786,0,0,1,1.581.718,4.094,4.094,0,0,1,.5,2.28,5.066,5.066,0,0,1-.257,1.779,1.8,1.8,0,0,1-.816.98,3.123,3.123,0,0,1-1.505.309,6.251,6.251,0,0,1-1.271-.128v2.6h-.875Zm3.453,4.655a3.04,3.04,0,0,0,.385-1.738,3.369,3.369,0,0,0-.333-1.721,1.11,1.11,0,0,0-1.009-.53,2.7,2.7,0,0,0-.729.111,4.756,4.756,0,0,0-.671.239l-.222.117v3.932a9.68,9.68,0,0,0,1.283.128A1.484,1.484,0,0,0,4341.614-530.717Z" transform="translate(-4338.161 537.916)" fill="#aeb0b3"/>
        <path id="Path_16" data-name="Path 16" d="M4349.186-529.731a1.722,1.722,0,0,1-.783-.962,5.25,5.25,0,0,1-.233-1.727,5.325,5.325,0,0,1,.245-1.779,1.773,1.773,0,0,1,.793-.98,2.966,2.966,0,0,1,1.459-.309,2.911,2.911,0,0,1,1.464.315,1.807,1.807,0,0,1,.787.98,5.245,5.245,0,0,1,.245,1.773,5.263,5.263,0,0,1-.233,1.727,1.731,1.731,0,0,1-.776.962,3.015,3.015,0,0,1-1.487.309A3.016,3.016,0,0,1,4349.186-529.731Zm2.473-.665a1.148,1.148,0,0,0,.473-.688,5.152,5.152,0,0,0,.134-1.336,5.362,5.362,0,0,0-.14-1.4,1.15,1.15,0,0,0-.479-.7,1.843,1.843,0,0,0-.968-.21,1.877,1.877,0,0,0-.974.21,1.165,1.165,0,0,0-.49.7,5.192,5.192,0,0,0-.146,1.4,5.159,5.159,0,0,0,.134,1.33,1.141,1.141,0,0,0,.479.694,1.887,1.887,0,0,0,1,.216A1.828,1.828,0,0,0,4351.658-530.4Z" transform="translate(-4342.278 537.916)" fill="#aeb0b3"/>
        <path id="Path_17" data-name="Path 17" d="M4358.16-535.291h.875l1.178,5.075h.187l1.389-4.959h.91l1.388,4.959h.2l1.167-5.075h.875l-1.388,5.833h-1.458l-1.236-4.562-1.236,4.562h-1.459Z" transform="translate(-4346.388 537.835)" fill="#aeb0b3"/>
        <path id="Path_18" data-name="Path 18" d="M4374.094-530.116a3.5,3.5,0,0,1-.554-2.187,3.966,3.966,0,0,1,.594-2.4,2.2,2.2,0,0,1,1.867-.782,2.178,2.178,0,0,1,1.744.671,3.1,3.1,0,0,1,.578,2.06l-.047.665h-3.85a3.235,3.235,0,0,0,.158,1.132,1.04,1.04,0,0,0,.537.589,2.5,2.5,0,0,0,1.056.181q.338,0,.782-.018t.8-.052l.338-.035.024.688a15.634,15.634,0,0,1-2.147.187A2.279,2.279,0,0,1,4374.094-530.116Zm3.354-2.678a2.565,2.565,0,0,0-.338-1.51,1.3,1.3,0,0,0-1.108-.45,1.445,1.445,0,0,0-1.19.473,2.386,2.386,0,0,0-.4,1.487Z" transform="translate(-4352.714 537.916)" fill="#aeb0b3"/>
        <path id="Path_19" data-name="Path 19" d="M4383.984-535.381h.864v.793a5.812,5.812,0,0,1,2.135-.922v.886a7.142,7.142,0,0,0-.986.286,7.38,7.38,0,0,0-.846.356l-.291.152v4.282h-.875Z" transform="translate(-4357.011 537.924)" fill="#aeb0b3"/>
        <path id="Path_20" data-name="Path 20" d="M4390.762-530.116a3.5,3.5,0,0,1-.554-2.187,3.958,3.958,0,0,1,.6-2.4,2.194,2.194,0,0,1,1.867-.782,2.178,2.178,0,0,1,1.744.671,3.1,3.1,0,0,1,.577,2.06l-.047.665h-3.85a3.247,3.247,0,0,0,.158,1.132,1.042,1.042,0,0,0,.537.589,2.506,2.506,0,0,0,1.056.181c.225,0,.486-.006.781-.018s.564-.029.8-.052l.339-.035.023.688a15.627,15.627,0,0,1-2.146.187A2.28,2.28,0,0,1,4390.762-530.116Zm3.354-2.678a2.564,2.564,0,0,0-.339-1.51,1.3,1.3,0,0,0-1.107-.45,1.446,1.446,0,0,0-1.19.473,2.386,2.386,0,0,0-.4,1.487Z" transform="translate(-4359.571 537.916)" fill="#aeb0b3"/>
        <path id="Path_21" data-name="Path 21" d="M4400.694-531.836a4.043,4.043,0,0,1-.479-2.211,3.921,3.921,0,0,1,.578-2.4,2.282,2.282,0,0,1,1.907-.735,6.8,6.8,0,0,1,1.389.151v-2.578h.863v8.377h-.863v-.4a3.613,3.613,0,0,1-1.809.513A1.764,1.764,0,0,1,4400.694-531.836Zm2.485-.163a3.906,3.906,0,0,0,.676-.228l.234-.1v-3.955a7.377,7.377,0,0,0-1.318-.14,1.45,1.45,0,0,0-1.29.537,3.244,3.244,0,0,0-.367,1.773,3.619,3.619,0,0,0,.3,1.675,1.077,1.077,0,0,0,1.032.542A3.06,3.06,0,0,0,4403.18-532Z" transform="translate(-4363.688 539.612)" fill="#aeb0b3"/>
        <path id="Path_22" data-name="Path 22" d="M4415.823-531.212l-.326-.035v-8.365h.863v2.835a4.318,4.318,0,0,1,1.773-.408,2.153,2.153,0,0,1,1.213.3,1.7,1.7,0,0,1,.647.951,6.074,6.074,0,0,1,.2,1.75,5.25,5.25,0,0,1-.257,1.855,1.628,1.628,0,0,1-.856.928,4.213,4.213,0,0,1-1.7.274A15.211,15.211,0,0,1,4415.823-531.212Zm2.789-.915a1.2,1.2,0,0,0,.548-.718,4.8,4.8,0,0,0,.152-1.365,5.213,5.213,0,0,0-.128-1.3,1.177,1.177,0,0,0-.426-.683,1.41,1.41,0,0,0-.822-.21,4.792,4.792,0,0,0-1.575.338v4.107q.84.058,1.12.058A2.308,2.308,0,0,0,4418.612-532.127Z" transform="translate(-4369.974 539.612)" fill="#aeb0b3"/>
        <path id="Path_23" data-name="Path 23" d="M4427.332-529.458h-.863l-1.657-5.833h.875l1.458,5.075h.385l1.471-5.075h.875l-2.427,8.423h-.875Z" transform="translate(-4373.806 537.835)" fill="#aeb0b3"/>
      </g>
      <g id="Group_21" data-name="Group 21" transform="translate(59.343)">
        <path id="Path_24" data-name="Path 24" d="M4446.151-531.385h1.308v1.32H4444.7v-.746h-.025a1.814,1.814,0,0,1-.836.686,3.219,3.219,0,0,1-1.333.258,3.647,3.647,0,0,1-1.457-.29,3.247,3.247,0,0,1-1.12-.775,3.645,3.645,0,0,1-.7-1.1,3.379,3.379,0,0,1-.251-1.282,3.243,3.243,0,0,1,.251-1.247,3.758,3.758,0,0,1,.7-1.1,3.254,3.254,0,0,1,1.12-.784,3.6,3.6,0,0,1,1.46-.3,3.087,3.087,0,0,1,1.3.287,1.786,1.786,0,0,1,.854.7h.038v-.772h1.455Zm-3.649.2a2.065,2.065,0,0,0,1.493-.593,2.043,2.043,0,0,0,.612-1.537,1.992,1.992,0,0,0-.619-1.525,2.093,2.093,0,0,0-1.486-.58,1.907,1.907,0,0,0-1.425.57,2.1,2.1,0,0,0-.559,1.535,2.141,2.141,0,0,0,.564,1.534A1.872,1.872,0,0,0,4442.5-531.187Z" transform="translate(-4438.975 539.199)" fill="#fff"/>
        <path id="Path_25" data-name="Path 25" d="M4461.073-536.386h1.557v3.2a3.468,3.468,0,0,1-.909,2.539,3.6,3.6,0,0,1-2.682.925,3.668,3.668,0,0,1-2.692-.9,3.421,3.421,0,0,1-.906-2.539v-3.228H4457v3.228a2.136,2.136,0,0,0,.539,1.582,2.039,2.039,0,0,0,1.5.536,2.01,2.01,0,0,0,1.5-.555,2.125,2.125,0,0,0,.549-1.563Z" transform="translate(-4445.749 539.052)" fill="#fff"/>
        <path id="Path_26" data-name="Path 26" d="M4475.721-540.915h1.454v9.134h-1.468v-.746h-.025a1.81,1.81,0,0,1-.832.686,3.182,3.182,0,0,1-1.324.258,3.65,3.65,0,0,1-1.458-.29,3.25,3.25,0,0,1-1.119-.775,3.625,3.625,0,0,1-.7-1.1,3.37,3.37,0,0,1-.252-1.282,3.378,3.378,0,0,1,.249-1.279,3.5,3.5,0,0,1,.7-1.094,3.237,3.237,0,0,1,1.119-.766,3.7,3.7,0,0,1,1.464-.287,3.053,3.053,0,0,1,1.292.287,1.786,1.786,0,0,1,.851.7h.052Zm-.708,7.418a2.035,2.035,0,0,0,.618-1.537,1.988,1.988,0,0,0-.621-1.525,2.1,2.1,0,0,0-1.483-.58,1.908,1.908,0,0,0-1.426.57,2.1,2.1,0,0,0-.559,1.535,2.14,2.14,0,0,0,.565,1.534,1.871,1.871,0,0,0,1.419.6A2.072,2.072,0,0,0,4475.013-533.5Z" transform="translate(-4451.737 540.915)" fill="#fff"/>
        <path id="Path_27" data-name="Path 27" d="M4488.485-529.854a3.724,3.724,0,0,1-1.474-.291,3.391,3.391,0,0,1-1.142-.768,3.549,3.549,0,0,1-.721-1.1,3.308,3.308,0,0,1-.262-1.289,3.163,3.163,0,0,1,.262-1.247,3.743,3.743,0,0,1,.717-1.1,3.412,3.412,0,0,1,1.142-.788,3.644,3.644,0,0,1,1.477-.3,3.625,3.625,0,0,1,1.47.3,3.433,3.433,0,0,1,1.141.785,3.7,3.7,0,0,1,.718,1.1,3.17,3.17,0,0,1,.262,1.253,3.382,3.382,0,0,1-.443,1.691,3.415,3.415,0,0,1-1.276,1.272A3.63,3.63,0,0,1,4488.485-529.854Zm0-5.556a2.014,2.014,0,0,0-1.464.575,2.037,2.037,0,0,0-.59,1.53,2.082,2.082,0,0,0,.593,1.534,1.978,1.978,0,0,0,1.461.6,1.98,1.98,0,0,0,1.461-.59,2.091,2.091,0,0,0,.586-1.54,2.034,2.034,0,0,0-.593-1.528A2.006,2.006,0,0,0,4488.485-535.41Z" transform="translate(-4457.861 539.199)" fill="#fff"/>
      </g>
    </g>
  </g>
</svg>
