<svg xmlns="http://www.w3.org/2000/svg" width="375.448" height="249.996" viewBox="0 0 375.448 249.996">
  <g id="Group_423" data-name="Group 423" transform="translate(-140.668 -258.204)">
    <g id="Group_420" data-name="Group 420" transform="translate(140.668 258.204)">
      <path id="Path_661" data-name="Path 661" d="M219.41,590.994h14.349v14.489H203.452v-8.19h-.28a19.874,19.874,0,0,1-9.17,7.524,35.344,35.344,0,0,1-14.629,2.835,39.95,39.95,0,0,1-15.994-3.186,35.545,35.545,0,0,1-12.283-8.5,39.975,39.975,0,0,1-7.664-12.11,36.95,36.95,0,0,1-2.764-14.069,35.493,35.493,0,0,1,2.764-13.684,41.171,41.171,0,0,1,7.629-12.041,35.656,35.656,0,0,1,12.285-8.608,39.444,39.444,0,0,1,16.027-3.255,33.867,33.867,0,0,1,14.28,3.149q6.857,3.152,9.379,7.632h.42v-8.47H219.41Zm-40.037,2.17a22.657,22.657,0,0,0,16.379-6.51q6.721-6.51,6.72-16.868t-6.789-16.73a23,23,0,0,0-16.31-6.368,20.934,20.934,0,0,0-15.643,6.264q-6.127,6.267-6.126,16.834,0,10.29,6.195,16.832A20.532,20.532,0,0,0,179.373,593.164Z" transform="translate(-140.668 -403.395)" fill="#fff"/>
      <path id="Path_662" data-name="Path 662" d="M428.723,537.114H445.8v35.137q0,17.707-9.975,27.857t-29.433,10.15q-19.6,0-29.538-9.871t-9.939-27.857V537.114H384v35.417q0,11.48,5.914,17.357t16.483,5.881q10.429,0,16.45-6.09t6.019-17.148Z" transform="translate(-260.558 -406)" fill="#fff"/>
      <path id="Path_663" data-name="Path 663" d="M629.738,474.877H645.7V575.108H629.6v-8.19h-.28a19.892,19.892,0,0,1-9.134,7.524,34.913,34.913,0,0,1-14.524,2.835,39.933,39.933,0,0,1-15.992-3.186,35.531,35.531,0,0,1-12.285-8.5,39.969,39.969,0,0,1-7.665-12.11,37.312,37.312,0,0,1-.033-28.1,38.65,38.65,0,0,1,7.629-12,35.666,35.666,0,0,1,12.283-8.4,40.527,40.527,0,0,1,16.063-3.149,33.466,33.466,0,0,1,14.175,3.149q6.824,3.152,9.344,7.632h.56Zm-7.769,81.4q6.787-6.51,6.788-16.868t-6.824-16.73a23.033,23.033,0,0,0-16.274-6.368,20.933,20.933,0,0,0-15.643,6.264q-6.127,6.267-6.124,16.834,0,10.29,6.195,16.832a20.527,20.527,0,0,0,15.571,6.546A22.73,22.73,0,0,0,621.969,556.279Z" transform="translate(-366.559 -373.02)" fill="#fff"/>
      <path id="Path_664" data-name="Path 664" d="M811.008,607.793a40.875,40.875,0,0,1-16.169-3.186,37.33,37.33,0,0,1-12.53-8.434,39.173,39.173,0,0,1-7.909-12.109,36.288,36.288,0,0,1-2.868-14.138,34.709,34.709,0,0,1,2.868-13.684,41.182,41.182,0,0,1,7.876-12.11,37.39,37.39,0,0,1,12.528-8.645,41.388,41.388,0,0,1,32.337,0,37.7,37.7,0,0,1,12.53,8.61,40.706,40.706,0,0,1,7.873,12.074,34.854,34.854,0,0,1,2.871,13.755,37.17,37.17,0,0,1-18.863,32.511A39.855,39.855,0,0,1,811.008,607.793Zm0-60.965a22.126,22.126,0,0,0-16.065,6.3q-6.474,6.3-6.473,16.8,0,10.289,6.508,16.833a22.987,22.987,0,0,0,32.057.071q6.441-6.474,6.439-16.9t-6.508-16.763A22.012,22.012,0,0,0,811.008,546.828Z" transform="translate(-474.965 -403.395)" fill="#fff"/>
      <circle id="Ellipse_368" data-name="Ellipse 368" cx="36.086" cy="36.086" r="36.086" transform="translate(56.927 51.033) rotate(-45)" fill="#3f8fd5"/>
      <circle id="Ellipse_369" data-name="Ellipse 369" cx="18.518" cy="18.518" r="18.518" transform="translate(161.767 58.802) rotate(-45)" fill="#7ddddd"/>
      <circle id="Ellipse_370" data-name="Ellipse 370" cx="26.544" cy="26.544" r="26.544" transform="translate(233.383 77.968) rotate(-82.238)" fill="#d0434c"/>
    </g>
    <g id="Group_422" data-name="Group 422" transform="translate(179.157 479.712)">
      <g id="Group_421" data-name="Group 421" transform="translate(0)">
        <path id="Path_665" data-name="Path 665" d="M272.964,755.159,274.512,757a6.671,6.671,0,0,1-2.635,1.906,10.042,10.042,0,0,1-7.991-.373,7.331,7.331,0,0,1-2.993-2.871,8.24,8.24,0,0,1-1.056-4.169,8.359,8.359,0,0,1,1.028-4.137,7.347,7.347,0,0,1,2.827-2.873,8.053,8.053,0,0,1,4.063-1.027,7.953,7.953,0,0,1,3.9.968,7.3,7.3,0,0,1,2.8,2.723,8,8,0,0,1,1.071,4.049l-12.532,2.44A4.859,4.859,0,0,0,265,756.17a6.249,6.249,0,0,0,3.409.893A5.851,5.851,0,0,0,272.964,755.159Zm-7.873-8.6a4.747,4.747,0,0,0-1.831,1.92,6.042,6.042,0,0,0-.654,2.873v.3l10.09-1.906a4.831,4.831,0,0,0-1.726-2.8,4.989,4.989,0,0,0-3.216-1.072A5.205,5.205,0,0,0,265.091,746.555Z" transform="translate(-242.305 -736.851)" fill="#999"/>
        <path id="Path_666" data-name="Path 666" d="M302.623,758.521a7.627,7.627,0,0,1-2.962-2.872,8.582,8.582,0,0,1,0-8.3,7.523,7.523,0,0,1,2.962-2.858,8.86,8.86,0,0,1,4.3-1.027,8.247,8.247,0,0,1,3.825.864,6.154,6.154,0,0,1,2.6,2.5l-2.174,1.4a4.855,4.855,0,0,0-1.845-1.7,5.263,5.263,0,0,0-2.442-.567,5.658,5.658,0,0,0-2.783.685,4.885,4.885,0,0,0-1.934,1.95,5.889,5.889,0,0,0-.7,2.9,5.956,5.956,0,0,0,.7,2.933,4.871,4.871,0,0,0,1.934,1.948,5.641,5.641,0,0,0,2.783.685,5.263,5.263,0,0,0,2.442-.565,4.867,4.867,0,0,0,1.845-1.7l2.174,1.369a6.247,6.247,0,0,1-2.6,2.516,8.144,8.144,0,0,1-3.825.878A8.755,8.755,0,0,1,302.623,758.521Z" transform="translate(-262.84 -736.851)" fill="#999"/>
        <path id="Path_667" data-name="Path 667" d="M351.051,745.2a6.848,6.848,0,0,1,1.772,5.1v9.079h-2.857v-8.751a4.84,4.84,0,0,0-1.1-3.453,4.138,4.138,0,0,0-3.155-1.16,4.922,4.922,0,0,0-3.662,1.353,5.3,5.3,0,0,0-1.339,3.884v8.127h-2.857V743.609h2.737v2.382a5.562,5.562,0,0,1,2.338-1.875,8.149,8.149,0,0,1,3.349-.655A6.514,6.514,0,0,1,351.051,745.2Z" transform="translate(-283.645 -736.851)" fill="#999"/>
        <path id="Path_668" data-name="Path 668" d="M382.046,758.521a7.547,7.547,0,0,1-2.931-2.872,8.685,8.685,0,0,1,0-8.3,7.444,7.444,0,0,1,2.931-2.858,8.651,8.651,0,0,1,4.227-1.027,8.561,8.561,0,0,1,4.212,1.027,7.473,7.473,0,0,1,2.917,2.858,8.685,8.685,0,0,1,0,8.3,7.577,7.577,0,0,1-2.917,2.872,8.46,8.46,0,0,1-4.212,1.043A8.55,8.55,0,0,1,382.046,758.521ZM389,756.364a4.941,4.941,0,0,0,1.89-1.964,6.5,6.5,0,0,0,0-5.8,4.851,4.851,0,0,0-1.89-1.95,5.757,5.757,0,0,0-5.447,0,4.932,4.932,0,0,0-1.906,1.95,6.374,6.374,0,0,0,0,5.8,5.024,5.024,0,0,0,1.906,1.964,5.652,5.652,0,0,0,5.447,0Z" transform="translate(-304.951 -736.851)" fill="#999"/>
        <path id="Path_669" data-name="Path 669" d="M422.618,751.352a4.842,4.842,0,0,1-1.249-3.557V730.352h2.858v17.205a2.86,2.86,0,0,0,.61,1.965,2.323,2.323,0,0,0,1.831.684,3.364,3.364,0,0,0,1.4-.3l.148,2.351a5.98,5.98,0,0,1-2.054.358A4.758,4.758,0,0,1,422.618,751.352Z" transform="translate(-327.901 -729.905)" fill="#999"/>
        <path id="Path_670" data-name="Path 670" d="M441.948,758.521a7.547,7.547,0,0,1-2.932-2.872,8.685,8.685,0,0,1,0-8.3,7.444,7.444,0,0,1,2.932-2.858,8.651,8.651,0,0,1,4.227-1.027,8.561,8.561,0,0,1,4.212,1.027,7.482,7.482,0,0,1,2.917,2.858,8.689,8.689,0,0,1,0,8.3,7.587,7.587,0,0,1-2.917,2.872,8.46,8.46,0,0,1-4.212,1.043A8.549,8.549,0,0,1,441.948,758.521Zm6.951-2.158a4.938,4.938,0,0,0,1.89-1.964,6.495,6.495,0,0,0,0-5.8,4.848,4.848,0,0,0-1.89-1.95,5.757,5.757,0,0,0-5.447,0,4.932,4.932,0,0,0-1.906,1.95,6.374,6.374,0,0,0,0,5.8,5.024,5.024,0,0,0,1.906,1.964,5.652,5.652,0,0,0,5.447,0Z" transform="translate(-336.693 -736.851)" fill="#999"/>
        <path id="Path_671" data-name="Path 671" d="M494.715,743.609v13.633q0,4.138-2.054,6.117t-6.132,1.979a14.672,14.672,0,0,1-4.256-.61A8.419,8.419,0,0,1,479,762.987l1.369-2.2a8.071,8.071,0,0,0,2.723,1.5,10.334,10.334,0,0,0,3.348.552,5.618,5.618,0,0,0,4.094-1.31,5.394,5.394,0,0,0,1.325-3.989v-1.251a6.319,6.319,0,0,1-2.485,1.831,8.266,8.266,0,0,1-3.2.612,8.634,8.634,0,0,1-4.094-.967,7.193,7.193,0,0,1-2.873-2.71,8.094,8.094,0,0,1,0-7.948,7.1,7.1,0,0,1,2.873-2.694,8.743,8.743,0,0,1,4.094-.952,8.346,8.346,0,0,1,3.318.655,6.154,6.154,0,0,1,2.515,1.934v-2.441Zm-5.431,11.967a4.85,4.85,0,0,0,1.934-1.831,5.117,5.117,0,0,0,.7-2.665,4.83,4.83,0,0,0-1.518-3.706,6.123,6.123,0,0,0-7.828,0,4.83,4.83,0,0,0-1.518,3.706,5.1,5.1,0,0,0,.7,2.665,4.841,4.841,0,0,0,1.934,1.831,6.308,6.308,0,0,0,5.6,0Z" transform="translate(-357.997 -736.851)" fill="#999"/>
        <path id="Path_672" data-name="Path 672" d="M524.433,732.588a1.759,1.759,0,0,1-.551-1.311,1.8,1.8,0,0,1,.551-1.325,1.882,1.882,0,0,1,1.385-.551,1.941,1.941,0,0,1,1.384.52,1.719,1.719,0,0,1,.551,1.3,1.841,1.841,0,0,1-.551,1.353,1.876,1.876,0,0,1-1.384.551A1.905,1.905,0,0,1,524.433,732.588Zm-.045,3.571h2.858v15.776h-2.858Z" transform="translate(-382.223 -729.402)" fill="#999"/>
        <path id="Path_673" data-name="Path 673" d="M555.866,743.609v15.776h-2.739v-2.5a6.188,6.188,0,0,1-2.411,2,7.463,7.463,0,0,1-3.215.685,8.3,8.3,0,0,1-4.108-1.012,7.256,7.256,0,0,1-2.843-2.843,8.466,8.466,0,0,1-1.028-4.213,8.379,8.379,0,0,1,1.028-4.2,7.274,7.274,0,0,1,2.843-2.828,8.294,8.294,0,0,1,4.108-1.012,7.552,7.552,0,0,1,3.125.64,6.059,6.059,0,0,1,2.381,1.89v-2.382Zm-5.418,12.755a4.9,4.9,0,0,0,1.906-1.964,6.494,6.494,0,0,0,0-5.8,4.813,4.813,0,0,0-1.906-1.95,5.728,5.728,0,0,0-5.432,0,4.934,4.934,0,0,0-1.9,1.95,6.373,6.373,0,0,0,0,5.8,5.027,5.027,0,0,0,1.9,1.964,5.624,5.624,0,0,0,5.432,0Z" transform="translate(-390.512 -736.851)" fill="#999"/>
        <path id="Path_674" data-name="Path 674" d="M612.869,755.159,614.416,757a6.678,6.678,0,0,1-2.633,1.906,10.046,10.046,0,0,1-7.993-.373,7.334,7.334,0,0,1-2.993-2.871,8.254,8.254,0,0,1-1.056-4.169,8.364,8.364,0,0,1,1.028-4.137,7.353,7.353,0,0,1,2.828-2.873,8.047,8.047,0,0,1,4.064-1.027,7.954,7.954,0,0,1,3.9.968,7.308,7.308,0,0,1,2.8,2.723,8,8,0,0,1,1.072,4.049L602.9,753.64a4.865,4.865,0,0,0,2.009,2.531,6.251,6.251,0,0,0,3.409.893A5.853,5.853,0,0,0,612.869,755.159Zm-7.875-8.6a4.747,4.747,0,0,0-1.831,1.92,6.048,6.048,0,0,0-.654,2.873v.3L612.6,749.74a4.832,4.832,0,0,0-1.727-2.8,4.988,4.988,0,0,0-3.215-1.072A5.208,5.208,0,0,0,604.995,746.555Z" transform="translate(-422.421 -736.851)" fill="#999"/>
        <path id="Path_675" data-name="Path 675" d="M658.9,753.089a9.3,9.3,0,0,1-3.438-1.89l1.1-2.322a9.112,9.112,0,0,0,3.051,1.741,11.206,11.206,0,0,0,3.824.67,6.892,6.892,0,0,0,3.87-.878,2.708,2.708,0,0,0,1.28-2.337,2.308,2.308,0,0,0-.7-1.743,4.693,4.693,0,0,0-1.727-1.026q-1.027-.357-2.9-.8a29.909,29.909,0,0,1-3.8-1.13A6.27,6.27,0,0,1,657,741.629a4.65,4.65,0,0,1-1.026-3.171,5.37,5.37,0,0,1,.878-3.007,6.028,6.028,0,0,1,2.664-2.142,10.8,10.8,0,0,1,4.435-.8,14.037,14.037,0,0,1,3.632.476,9.678,9.678,0,0,1,3.066,1.369l-.983,2.381a10.831,10.831,0,0,0-2.8-1.264,10.426,10.426,0,0,0-2.917-.432,6.423,6.423,0,0,0-3.8.924,2.823,2.823,0,0,0-1.264,2.381,2.281,2.281,0,0,0,.713,1.741,4.968,4.968,0,0,0,1.772,1.041,27.28,27.28,0,0,0,2.873.79,29.071,29.071,0,0,1,3.78,1.13,6.374,6.374,0,0,1,2.456,1.727,4.551,4.551,0,0,1,1.028,3.127,5.322,5.322,0,0,1-.894,2.991,5.985,5.985,0,0,1-2.709,2.143,11.209,11.209,0,0,1-4.465.788A14.228,14.228,0,0,1,658.9,753.089Z" transform="translate(-451.949 -731.046)" fill="#999"/>
        <path id="Path_676" data-name="Path 676" d="M711.192,743.609v15.776h-2.738v-2.5a6.194,6.194,0,0,1-2.412,2,7.467,7.467,0,0,1-3.214.685,8.294,8.294,0,0,1-4.108-1.012,7.26,7.26,0,0,1-2.843-2.843,8.466,8.466,0,0,1-1.028-4.213,8.379,8.379,0,0,1,1.028-4.2,7.277,7.277,0,0,1,2.843-2.828,8.293,8.293,0,0,1,4.108-1.012,7.553,7.553,0,0,1,3.125.64,6.058,6.058,0,0,1,2.381,1.89v-2.382Zm-5.418,12.755a4.9,4.9,0,0,0,1.906-1.964,6.494,6.494,0,0,0,0-5.8,4.812,4.812,0,0,0-1.906-1.95,5.729,5.729,0,0,0-5.433,0,4.94,4.94,0,0,0-1.9,1.95,6.374,6.374,0,0,0,0,5.8,5.033,5.033,0,0,0,1.9,1.964,5.625,5.625,0,0,0,5.433,0Z" transform="translate(-472.82 -736.851)" fill="#999"/>
        <path id="Path_677" data-name="Path 677" d="M755.672,736.83v15.776h-2.709v-2.381a5.746,5.746,0,0,1-2.278,1.89,7.1,7.1,0,0,1-3.081.67,6.881,6.881,0,0,1-4.97-1.741,6.793,6.793,0,0,1-1.817-5.136V736.83h2.859v8.751a4.893,4.893,0,0,0,1.1,3.468,4.111,4.111,0,0,0,3.155,1.176,4.713,4.713,0,0,0,3.572-1.369,5.381,5.381,0,0,0,1.308-3.87V736.83Zm-5.6-6.162h3.631l-5,3.87h-2.68Z" transform="translate(-497.179 -730.073)" fill="#999"/>
        <path id="Path_678" data-name="Path 678" d="M797.243,730.352v22.087H794.5v-2.5a6.188,6.188,0,0,1-2.412,1.995,7.465,7.465,0,0,1-3.215.685,8.294,8.294,0,0,1-4.108-1.012,7.259,7.259,0,0,1-2.843-2.843,8.465,8.465,0,0,1-1.028-4.213,8.379,8.379,0,0,1,1.028-4.2,7.278,7.278,0,0,1,2.843-2.828,8.294,8.294,0,0,1,4.108-1.012,7.554,7.554,0,0,1,3.126.64,6.062,6.062,0,0,1,2.381,1.89v-8.692Zm-5.418,19.066a4.9,4.9,0,0,0,1.905-1.965,6.49,6.49,0,0,0,0-5.8,4.807,4.807,0,0,0-1.905-1.95,5.729,5.729,0,0,0-5.433,0,4.937,4.937,0,0,0-1.9,1.95,6.373,6.373,0,0,0,0,5.8,5.031,5.031,0,0,0,1.9,1.965,5.625,5.625,0,0,0,5.433,0Z" transform="translate(-518.418 -729.905)" fill="#999"/>
        <path id="Path_679" data-name="Path 679" d="M837.213,755.159,838.76,757a6.675,6.675,0,0,1-2.633,1.906,10.046,10.046,0,0,1-7.993-.373,7.333,7.333,0,0,1-2.992-2.871,8.25,8.25,0,0,1-1.057-4.169,8.364,8.364,0,0,1,1.028-4.137,7.353,7.353,0,0,1,2.828-2.873A8.048,8.048,0,0,1,832,743.46a7.952,7.952,0,0,1,3.9.968,7.3,7.3,0,0,1,2.8,2.723,8,8,0,0,1,1.073,4.049l-12.533,2.44a4.865,4.865,0,0,0,2.009,2.531,6.252,6.252,0,0,0,3.409.893A5.853,5.853,0,0,0,837.213,755.159Zm-7.874-8.6a4.745,4.745,0,0,0-1.831,1.92,6.047,6.047,0,0,0-.654,2.873v.3l10.092-1.906a4.829,4.829,0,0,0-1.727-2.8A4.988,4.988,0,0,0,832,745.87,5.206,5.206,0,0,0,829.339,746.555Z" transform="translate(-541.302 -736.851)" fill="#999"/>
        <path id="Path_680" data-name="Path 680" d="M240.58,732.505H222.542v2.68h7.56v18.4h2.948v-18.4h7.53Z" transform="translate(-222.542 -731.046)" fill="#999"/>
      </g>
    </g>
  </g>
</svg>
