<svg xmlns="http://www.w3.org/2000/svg" width="417" height="100.63" viewBox="0 0 417 100.63">
  <g id="Group_70" data-name="Group 70" transform="translate(1483.658 -1601.265)">
    <g id="Group_66" data-name="Group 66" transform="translate(-1483.658 1601.265)">
      <g id="Group_64" data-name="Group 64" transform="translate(114.985 17.285)">
        <g id="Group_57" data-name="Group 57" transform="translate(80.963 33.862)">
          <g id="Group_56" data-name="Group 56">
            <rect id="Rectangle_59" data-name="Rectangle 59" width="38.457" height="10.808" fill="#040505"/>
          </g>
        </g>
        <g id="Group_58" data-name="Group 58" transform="translate(0 0.234)">
          <path id="Path_64" data-name="Path 64" d="M-1199.438,1639.26h-34.854v58.283h34.854A29.175,29.175,0,0,0-1170.3,1668.4,29.175,29.175,0,0,0-1199.438,1639.26Zm0,45.726h-22.3v-33.17h22.3a16.6,16.6,0,0,1,16.585,16.585A16.6,16.6,0,0,1-1199.438,1684.986Z" transform="translate(1234.292 -1639.259)" fill="#040505"/>
        </g>
        <g id="Group_59" data-name="Group 59" transform="translate(72.089)">
          <path id="Path_65" data-name="Path 65" d="M-1021.748,1697.27H-1034.3v-34.275a8.591,8.591,0,0,0-2.915-6.468c-13.074-11.441-28.178-2.287-28.178,10.328v30.415h-12.557v-34.639a21.175,21.175,0,0,1,8.817-17.259c22.733-16.209,47.389-.188,47.389,21.483Z" transform="translate(1077.954 -1638.752)" fill="#040505"/>
        </g>
        <g id="Group_61" data-name="Group 61" transform="translate(254.683 33.862)">
          <g id="Group_60" data-name="Group 60">
            <rect id="Rectangle_60" data-name="Rectangle 60" width="38.457" height="10.808" fill="#040505"/>
          </g>
        </g>
        <g id="Group_62" data-name="Group 62" transform="translate(245.809)">
          <path id="Path_66" data-name="Path 66" d="M-645.007,1697.27h-12.557v-34.275a8.591,8.591,0,0,0-2.915-6.468c-13.074-11.441-28.178-2.287-28.178,10.328v30.415h-12.557v-34.639a21.175,21.175,0,0,1,8.817-17.259c22.733-16.209,47.389-.188,47.389,21.483Z" transform="translate(701.213 -1638.752)" fill="#040505"/>
        </g>
        <g id="Group_63" data-name="Group 63" transform="translate(138.651 0.15)">
          <path id="Path_67" data-name="Path 67" d="M-883.9,1700.572a15.666,15.666,0,0,1-15.585-12.525l-6.724-30.523a7.551,7.551,0,0,0-7.329-5.89,7.513,7.513,0,0,0-7.5,7.5v38.3H-933.6v-38.3a20.084,20.084,0,0,1,20.061-20.061,20.132,20.132,0,0,1,12.567,4.424,20.128,20.128,0,0,1,7.024,11.321l6.724,30.523a3.211,3.211,0,0,0,3.322,2.67,3.211,3.211,0,0,0,3.322-2.67l6.724-30.523a20.129,20.129,0,0,1,7.025-11.321,20.131,20.131,0,0,1,12.567-4.424,20.084,20.084,0,0,1,20.061,20.061v38.3h-12.557v-38.3a7.513,7.513,0,0,0-7.5-7.5,7.551,7.551,0,0,0-7.329,5.89l-6.724,30.523A15.667,15.667,0,0,1-883.9,1700.572Z" transform="translate(933.603 -1639.077)" fill="#040505"/>
        </g>
      </g>
      <g id="Group_65" data-name="Group 65">
        <rect id="Rectangle_61" data-name="Rectangle 61" width="55.952" height="55.952" rx="27.976" transform="translate(18.568 18.569)" fill="#040505"/>
        <path id="Path_68" data-name="Path 68" d="M-1437.114,1601.265h-46.544v46.544A46.544,46.544,0,0,1-1437.114,1601.265Z" transform="translate(1483.658 -1601.265)" fill="#265ca8"/>
        <path id="Path_69" data-name="Path 69" d="M-1382.719,1601.265a46.544,46.544,0,0,1,46.545,46.544v-46.544Z" transform="translate(1429.263 -1601.265)" fill="#14978a"/>
        <path id="Path_70" data-name="Path 70" d="M-1483.658,1702.2v46.544h46.544A46.544,46.544,0,0,1-1483.658,1702.2Z" transform="translate(1483.658 -1655.66)" fill="#db9ac4"/>
        <path id="Path_71" data-name="Path 71" d="M-1382.719,1748.749h46.545V1702.2A46.544,46.544,0,0,1-1382.719,1748.749Z" transform="translate(1429.263 -1655.66)" fill="#ea3716"/>
      </g>
    </g>
    <g id="Group_69" data-name="Group 69" transform="translate(-1230.022 1681.407)">
      <g id="Group_67" data-name="Group 67" transform="translate(0 1.34)">
        <path id="Path_72" data-name="Path 72" d="M-933.6,1787.365h1.507v.733a7.481,7.481,0,0,1,1.538-.7,5.24,5.24,0,0,1,1.579-.234,3.119,3.119,0,0,1,2.761,1.253,7.147,7.147,0,0,1,.865,3.983,8.872,8.872,0,0,1-.448,3.107,3.158,3.158,0,0,1-1.426,1.712,5.452,5.452,0,0,1-2.628.539,10.9,10.9,0,0,1-2.22-.224v4.543H-933.6Zm6.03,8.128a5.307,5.307,0,0,0,.672-3.035,5.877,5.877,0,0,0-.581-3.005,1.938,1.938,0,0,0-1.762-.927,4.678,4.678,0,0,0-1.273.194,8.233,8.233,0,0,0-1.172.418l-.387.2v6.865a16.852,16.852,0,0,0,2.241.224A2.593,2.593,0,0,0-927.573,1795.493Z" transform="translate(933.603 -1782.924)" fill="#aeb0b3"/>
        <path id="Path_73" data-name="Path 73" d="M-909.521,1797.215a3.006,3.006,0,0,1-1.365-1.681,9.17,9.17,0,0,1-.407-3.015,9.26,9.26,0,0,1,.428-3.107,3.092,3.092,0,0,1,1.385-1.711,5.178,5.178,0,0,1,2.546-.54,5.089,5.089,0,0,1,2.557.55,3.155,3.155,0,0,1,1.375,1.711,9.179,9.179,0,0,1,.427,3.1,9.17,9.17,0,0,1-.407,3.015,3.021,3.021,0,0,1-1.355,1.681,5.267,5.267,0,0,1-2.6.539A5.277,5.277,0,0,1-909.521,1797.215Zm4.319-1.162a2,2,0,0,0,.825-1.2,8.995,8.995,0,0,0,.234-2.333,9.37,9.37,0,0,0-.245-2.444,2.01,2.01,0,0,0-.835-1.222,3.223,3.223,0,0,0-1.691-.367,3.28,3.28,0,0,0-1.7.367,2.033,2.033,0,0,0-.855,1.222,9.011,9.011,0,0,0-.255,2.444,9,9,0,0,0,.234,2.323,1.988,1.988,0,0,0,.835,1.212,3.294,3.294,0,0,0,1.742.377A3.193,3.193,0,0,0-905.2,1796.053Z" transform="translate(921.58 -1782.924)" fill="#aeb0b3"/>
        <path id="Path_74" data-name="Path 74" d="M-889.026,1787.6h1.528l2.058,8.862h.326l2.424-8.658h1.589l2.425,8.658h.346l2.037-8.862h1.528l-2.424,10.186h-2.547l-2.159-7.965-2.159,7.965H-886.6Z" transform="translate(909.581 -1783.162)" fill="#aeb0b3"/>
        <path id="Path_75" data-name="Path 75" d="M-853.776,1796.542a6.107,6.107,0,0,1-.967-3.82,6.918,6.918,0,0,1,1.039-4.2,3.833,3.833,0,0,1,3.26-1.365,3.8,3.8,0,0,1,3.045,1.171,5.411,5.411,0,0,1,1.009,3.6l-.082,1.161H-853.2a5.665,5.665,0,0,0,.275,1.976,1.816,1.816,0,0,0,.937,1.029,4.368,4.368,0,0,0,1.844.316q.59,0,1.364-.031t1.406-.091l.591-.061.041,1.2a27.232,27.232,0,0,1-3.748.326A3.979,3.979,0,0,1-853.776,1796.542Zm5.857-4.675a4.49,4.49,0,0,0-.591-2.638,2.269,2.269,0,0,0-1.935-.785,2.523,2.523,0,0,0-2.078.826,4.164,4.164,0,0,0-.693,2.6Z" transform="translate(891.106 -1782.924)" fill="#aeb0b3"/>
        <path id="Path_76" data-name="Path 76" d="M-831.461,1787.341h1.507v1.385a10.174,10.174,0,0,1,3.728-1.609v1.548a12.414,12.414,0,0,0-1.721.5,12.8,12.8,0,0,0-1.477.621l-.509.265v7.476h-1.528Z" transform="translate(878.56 -1782.9)" fill="#aeb0b3"/>
        <path id="Path_77" data-name="Path 77" d="M-816.622,1796.542a6.107,6.107,0,0,1-.967-3.82,6.918,6.918,0,0,1,1.039-4.2,3.834,3.834,0,0,1,3.26-1.365,3.8,3.8,0,0,1,3.045,1.171,5.412,5.412,0,0,1,1.008,3.6l-.081,1.161h-6.723a5.665,5.665,0,0,0,.275,1.976,1.816,1.816,0,0,0,.937,1.029,4.367,4.367,0,0,0,1.844.316q.591,0,1.365-.031t1.406-.091l.591-.061.041,1.2a27.234,27.234,0,0,1-3.748.326A3.979,3.979,0,0,1-816.622,1796.542Zm5.857-4.675a4.49,4.49,0,0,0-.591-2.638,2.268,2.268,0,0,0-1.935-.785,2.524,2.524,0,0,0-2.078.826,4.168,4.168,0,0,0-.693,2.6Z" transform="translate(871.084 -1782.924)" fill="#aeb0b3"/>
        <path id="Path_78" data-name="Path 78" d="M-794.444,1791.55a7.066,7.066,0,0,1-.835-3.861,6.855,6.855,0,0,1,1.008-4.2,3.984,3.984,0,0,1,3.331-1.283,11.831,11.831,0,0,1,2.424.265v-4.5h1.508V1792.6h-1.508v-.693a6.3,6.3,0,0,1-3.157.9A3.081,3.081,0,0,1-794.444,1791.55Zm4.339-.285a6.79,6.79,0,0,0,1.182-.4l.407-.183v-6.906a12.884,12.884,0,0,0-2.3-.244,2.534,2.534,0,0,0-2.251.937,5.658,5.658,0,0,0-.641,3.1,6.311,6.311,0,0,0,.519,2.923,1.882,1.882,0,0,0,1.8.947A5.312,5.312,0,0,0-790.1,1791.264Z" transform="translate(859.062 -1777.972)" fill="#aeb0b3"/>
        <path id="Path_79" data-name="Path 79" d="M-760.648,1792.64l-.57-.062v-14.606h1.507v4.95a7.541,7.541,0,0,1,3.1-.713,3.76,3.76,0,0,1,2.118.52,2.977,2.977,0,0,1,1.131,1.66,10.579,10.579,0,0,1,.357,3.056,9.2,9.2,0,0,1-.448,3.239,2.841,2.841,0,0,1-1.5,1.619,7.338,7.338,0,0,1-2.964.479A26.814,26.814,0,0,1-760.648,1792.64Zm4.869-1.6a2.087,2.087,0,0,0,.957-1.253,8.409,8.409,0,0,0,.265-2.384,9.053,9.053,0,0,0-.224-2.271,2.053,2.053,0,0,0-.744-1.192,2.456,2.456,0,0,0-1.436-.366,8.365,8.365,0,0,0-2.75.591v7.171q1.467.1,1.956.1A4.024,4.024,0,0,0-755.779,1791.041Z" transform="translate(840.707 -1777.972)" fill="#aeb0b3"/>
        <path id="Path_80" data-name="Path 80" d="M-736.054,1797.789h-1.507l-2.893-10.186h1.528l2.546,8.862h.672l2.567-8.862h1.528l-4.237,14.708h-1.528Z" transform="translate(829.517 -1783.162)" fill="#aeb0b3"/>
      </g>
      <g id="Group_68" data-name="Group 68" transform="translate(103.621)">
        <path id="Path_81" data-name="Path 81" d="M-696.353,1793.722h2.283v2.306h-4.822v-1.3h-.045a3.164,3.164,0,0,1-1.459,1.2,5.625,5.625,0,0,1-2.328.451,6.358,6.358,0,0,1-2.545-.507,5.655,5.655,0,0,1-1.955-1.353,6.356,6.356,0,0,1-1.22-1.927,5.877,5.877,0,0,1-.439-2.238,5.649,5.649,0,0,1,.439-2.178,6.553,6.553,0,0,1,1.214-1.916,5.676,5.676,0,0,1,1.955-1.37,6.278,6.278,0,0,1,2.55-.518,5.39,5.39,0,0,1,2.272.5,3.132,3.132,0,0,1,1.493,1.214h.067v-1.348h2.539Zm-6.371.345a3.6,3.6,0,0,0,2.606-1.036,3.569,3.569,0,0,0,1.069-2.684,3.483,3.483,0,0,0-1.08-2.662,3.661,3.661,0,0,0-2.6-1.013,3.331,3.331,0,0,0-2.489,1,3.668,3.668,0,0,0-.975,2.679,3.738,3.738,0,0,0,.986,2.678A3.268,3.268,0,0,0-702.724,1794.067Z" transform="translate(708.883 -1780.078)" fill="#040505"/>
        <path id="Path_82" data-name="Path 82" d="M-662.345,1785.163h2.718v5.591a6.05,6.05,0,0,1-1.587,4.433,6.285,6.285,0,0,1-4.683,1.615,6.406,6.406,0,0,1-4.7-1.571,5.97,5.97,0,0,1-1.582-4.433v-5.636h2.718v5.636a3.73,3.73,0,0,0,.941,2.762,3.558,3.558,0,0,0,2.623.936,3.512,3.512,0,0,0,2.617-.969,3.714,3.714,0,0,0,.958-2.729Z" transform="translate(689.104 -1780.507)" fill="#040505"/>
        <path id="Path_83" data-name="Path 83" d="M-629.739,1775.066h2.539v15.949h-2.562v-1.3h-.044a3.167,3.167,0,0,1-1.454,1.2,5.558,5.558,0,0,1-2.311.451,6.352,6.352,0,0,1-2.544-.507,5.656,5.656,0,0,1-1.955-1.353,6.356,6.356,0,0,1-1.22-1.927,5.877,5.877,0,0,1-.439-2.238,5.9,5.9,0,0,1,.434-2.234,6.145,6.145,0,0,1,1.214-1.91,5.674,5.674,0,0,1,1.955-1.337,6.452,6.452,0,0,1,2.556-.5,5.329,5.329,0,0,1,2.256.5,3.127,3.127,0,0,1,1.487,1.214h.089Zm-1.236,12.953a3.552,3.552,0,0,0,1.08-2.684,3.472,3.472,0,0,0-1.086-2.662,3.664,3.664,0,0,0-2.59-1.013,3.331,3.331,0,0,0-2.489,1,3.668,3.668,0,0,0-.974,2.679,3.736,3.736,0,0,0,.986,2.678,3.267,3.267,0,0,0,2.478,1.042A3.617,3.617,0,0,0-630.975,1788.019Z" transform="translate(671.617 -1775.066)" fill="#040505"/>
        <path id="Path_84" data-name="Path 84" d="M-600.26,1796.395a6.512,6.512,0,0,1-2.573-.507,5.945,5.945,0,0,1-1.994-1.342,6.23,6.23,0,0,1-1.258-1.927,5.773,5.773,0,0,1-.456-2.249,5.524,5.524,0,0,1,.456-2.177,6.539,6.539,0,0,1,1.253-1.927,5.942,5.942,0,0,1,1.993-1.375,6.363,6.363,0,0,1,2.579-.523,6.335,6.335,0,0,1,2.567.523,5.99,5.99,0,0,1,1.994,1.37,6.474,6.474,0,0,1,1.253,1.921,5.546,5.546,0,0,1,.456,2.189,5.9,5.9,0,0,1-.774,2.951,5.957,5.957,0,0,1-2.228,2.222A6.343,6.343,0,0,1-600.26,1796.395Zm0-9.7a3.519,3.519,0,0,0-2.556,1,3.559,3.559,0,0,0-1.03,2.673,3.636,3.636,0,0,0,1.036,2.678,3.455,3.455,0,0,0,2.551,1.042,3.453,3.453,0,0,0,2.55-1.03,3.648,3.648,0,0,0,1.025-2.69,3.553,3.553,0,0,0-1.036-2.667A3.5,3.5,0,0,0-600.26,1786.694Z" transform="translate(653.733 -1780.078)" fill="#040505"/>
      </g>
    </g>
  </g>
</svg>
