<svg xmlns="http://www.w3.org/2000/svg" width="25.284" height="25.294" viewBox="0 0 25.284 25.294">
  <g id="Group_354" data-name="Group 354" transform="translate(0)">
    <path id="Path_607" data-name="Path 607" d="M435.844,4163.858q.6-1.772,1.208-3.545a.656.656,0,0,0-.06-.585,12.335,12.335,0,0,1,8.168-18.3,12.768,12.768,0,0,1,2.662-.282,12.366,12.366,0,0,1,2.587,24.47,13.3,13.3,0,0,1-2.684.281,12.628,12.628,0,0,1-5.81-1.444.707.707,0,0,0-.32-.071.767.767,0,0,0-.229.034q-2.618.821-5.23,1.654l-1.166.371Zm5.986-1.207a.273.273,0,0,1,.125.026,11.175,11.175,0,0,0,5.771,1.685,11.453,11.453,0,0,0,4.14-.812,10.833,10.833,0,1,0-14.934-11.095,10.539,10.539,0,0,0,1.875,7.2.233.233,0,0,1,.034.257c-.32.927-.633,1.854-.954,2.8l-.432,1.275.518-.145c.058-.016.1-.028.149-.042l.878-.279c.923-.292,1.844-.585,2.769-.87A.241.241,0,0,1,441.83,4162.651Z" transform="translate(-434.97 -4141.149)" fill="#040505"/>
    <path id="Path_608" data-name="Path 608" d="M451.462,4160.953a3.673,3.673,0,0,1-1.824-.493,12.126,12.126,0,0,1-5.661-6.937,7.461,7.461,0,0,1-.569-2.889,3.47,3.47,0,0,1,1.96-3.022,1.055,1.055,0,0,1,.813-.086c.236.071.471.146.707.22a.553.553,0,0,1,.353.524c.1.735.194,1.471.289,2.207a.744.744,0,0,0,.019.142.944.944,0,0,1-.471,1.139c-.227.163-.463.313-.7.464-.256.164-.319.29-.235.582a8.364,8.364,0,0,0,2.751,4.335c.136.111.271.224.408.333a.445.445,0,0,0,.649.032c.408-.278.812-.566,1.209-.86.277-.205.409-.234.685-.019.433.34.849.7,1.267,1.061.3.26.6.529.9.792a.4.4,0,0,1,.139.468,2.4,2.4,0,0,1-2.217,1.946C451.78,4160.924,451.62,4160.933,451.462,4160.953Z" transform="translate(-435.915 -4141.859)" fill="#040505"/>
  </g>
</svg>
