<svg xmlns="http://www.w3.org/2000/svg" width="517.108" height="517.108" viewBox="0 0 517.108 517.108">
  <g id="Group_392" data-name="Group 392" transform="translate(-2859.868 376.158)">
    <circle id="Ellipse_242" data-name="Ellipse 242" cx="4" cy="4" r="4" transform="translate(3318.065 132.95)" fill="#3d3d3d"/>
    <circle id="Ellipse_243" data-name="Ellipse 243" cx="4" cy="4" r="4" transform="translate(3267.155 132.95)" fill="#3d3d3d"/>
    <circle id="Ellipse_244" data-name="Ellipse 244" cx="4" cy="4" r="4" transform="translate(3216.244 132.95)" fill="#3d3d3d"/>
    <circle id="Ellipse_245" data-name="Ellipse 245" cx="4" cy="4" r="4" transform="translate(3165.333 132.95)" fill="#3d3d3d"/>
    <circle id="Ellipse_246" data-name="Ellipse 246" cx="4" cy="4" r="4" transform="translate(3114.422 132.95)" fill="#3d3d3d"/>
    <circle id="Ellipse_247" data-name="Ellipse 247" cx="4" cy="4" r="4" transform="translate(3063.511 132.95)" fill="#3d3d3d"/>
    <circle id="Ellipse_248" data-name="Ellipse 248" cx="4" cy="4" r="4" transform="translate(3012.601 132.95)" fill="#3d3d3d"/>
    <circle id="Ellipse_249" data-name="Ellipse 249" cx="4" cy="4" r="4" transform="translate(2961.69 132.95)" fill="#3d3d3d"/>
    <circle id="Ellipse_250" data-name="Ellipse 250" cx="4" cy="4" r="4" transform="translate(2910.779 132.95)" fill="#3d3d3d"/>
    <circle id="Ellipse_251" data-name="Ellipse 251" cx="6.946" cy="6.946" r="6.946" transform="translate(3315.119 79.093)" fill="#969696"/>
    <circle id="Ellipse_252" data-name="Ellipse 252" cx="6.946" cy="6.946" r="6.946" transform="translate(3315.119 28.182)" fill="#969696"/>
    <circle id="Ellipse_253" data-name="Ellipse 253" cx="6.946" cy="6.946" r="6.946" transform="translate(3315.119 -22.728)" fill="#969696"/>
    <circle id="Ellipse_254" data-name="Ellipse 254" cx="6.946" cy="6.946" r="6.946" transform="translate(3315.119 -73.639)" fill="#969696"/>
    <circle id="Ellipse_255" data-name="Ellipse 255" cx="6.946" cy="6.946" r="6.946" transform="translate(3315.119 -124.55)" fill="#969696"/>
    <circle id="Ellipse_256" data-name="Ellipse 256" cx="6.946" cy="6.946" r="6.946" transform="translate(3315.119 -175.461)" fill="#969696"/>
    <circle id="Ellipse_257" data-name="Ellipse 257" cx="6.946" cy="6.946" r="6.946" transform="translate(3315.119 -226.372)" fill="#969696"/>
    <circle id="Ellipse_258" data-name="Ellipse 258" cx="6.946" cy="6.946" r="6.946" transform="translate(3315.119 -277.282)" fill="#969696"/>
    <circle id="Ellipse_259" data-name="Ellipse 259" cx="6.946" cy="6.946" r="6.946" transform="translate(3315.119 -328.193)" fill="#969696"/>
    <circle id="Ellipse_260" data-name="Ellipse 260" cx="6.946" cy="6.946" r="6.946" transform="translate(3264.209 79.093)" fill="#969696"/>
    <circle id="Ellipse_261" data-name="Ellipse 261" cx="6.946" cy="6.946" r="6.946" transform="translate(3264.209 28.182)" fill="#fff"/>
    <circle id="Ellipse_262" data-name="Ellipse 262" cx="6.946" cy="6.946" r="6.946" transform="translate(3264.209 -22.728)" fill="#fff"/>
    <circle id="Ellipse_263" data-name="Ellipse 263" cx="6.946" cy="6.946" r="6.946" transform="translate(3264.209 -73.639)" fill="#fff"/>
    <circle id="Ellipse_264" data-name="Ellipse 264" cx="6.946" cy="6.946" r="6.946" transform="translate(3264.209 -124.55)" fill="#fff"/>
    <circle id="Ellipse_265" data-name="Ellipse 265" cx="6.946" cy="6.946" r="6.946" transform="translate(3264.209 -175.461)" fill="#fff"/>
    <circle id="Ellipse_266" data-name="Ellipse 266" cx="6.946" cy="6.946" r="6.946" transform="translate(3264.209 -226.372)" fill="#fff"/>
    <circle id="Ellipse_267" data-name="Ellipse 267" cx="6.946" cy="6.946" r="6.946" transform="translate(3264.209 -277.282)" fill="#fff"/>
    <circle id="Ellipse_268" data-name="Ellipse 268" cx="6.946" cy="6.946" r="6.946" transform="translate(3264.209 -328.193)" fill="#969696"/>
    <circle id="Ellipse_269" data-name="Ellipse 269" cx="6.946" cy="6.946" r="6.946" transform="translate(3213.298 79.093)" fill="#969696"/>
    <circle id="Ellipse_270" data-name="Ellipse 270" cx="6.946" cy="6.946" r="6.946" transform="translate(3213.298 28.182)" fill="#fff"/>
    <circle id="Ellipse_271" data-name="Ellipse 271" cx="6.946" cy="6.946" r="6.946" transform="translate(3213.298 -22.728)" fill="#fff"/>
    <circle id="Ellipse_272" data-name="Ellipse 272" cx="6.946" cy="6.946" r="6.946" transform="translate(3213.298 -73.639)" fill="#fff"/>
    <circle id="Ellipse_273" data-name="Ellipse 273" cx="6.946" cy="6.946" r="6.946" transform="translate(3213.298 -124.55)" fill="#fff"/>
    <circle id="Ellipse_274" data-name="Ellipse 274" cx="6.946" cy="6.946" r="6.946" transform="translate(3213.298 -175.461)" fill="#fff"/>
    <circle id="Ellipse_275" data-name="Ellipse 275" cx="6.946" cy="6.946" r="6.946" transform="translate(3213.298 -226.372)" fill="#fff"/>
    <circle id="Ellipse_276" data-name="Ellipse 276" cx="6.946" cy="6.946" r="6.946" transform="translate(3213.298 -277.282)" fill="#fff"/>
    <circle id="Ellipse_277" data-name="Ellipse 277" cx="6.946" cy="6.946" r="6.946" transform="translate(3213.298 -328.193)" fill="#969696"/>
    <circle id="Ellipse_278" data-name="Ellipse 278" cx="6.946" cy="6.946" r="6.946" transform="translate(3162.387 79.093)" fill="#969696"/>
    <circle id="Ellipse_279" data-name="Ellipse 279" cx="6.946" cy="6.946" r="6.946" transform="translate(3162.387 28.182)" fill="#fff"/>
    <circle id="Ellipse_280" data-name="Ellipse 280" cx="6.946" cy="6.946" r="6.946" transform="translate(3162.387 -22.728)" fill="#fff"/>
    <circle id="Ellipse_281" data-name="Ellipse 281" cx="6.946" cy="6.946" r="6.946" transform="translate(3162.387 -73.639)" fill="#fff"/>
    <circle id="Ellipse_282" data-name="Ellipse 282" cx="6.946" cy="6.946" r="6.946" transform="translate(3162.387 -124.55)" fill="#fff"/>
    <circle id="Ellipse_283" data-name="Ellipse 283" cx="6.946" cy="6.946" r="6.946" transform="translate(3162.387 -175.461)" fill="#fff"/>
    <circle id="Ellipse_284" data-name="Ellipse 284" cx="6.946" cy="6.946" r="6.946" transform="translate(3162.387 -226.372)" fill="#fff"/>
    <circle id="Ellipse_285" data-name="Ellipse 285" cx="6.946" cy="6.946" r="6.946" transform="translate(3162.387 -277.282)" fill="#fff"/>
    <circle id="Ellipse_286" data-name="Ellipse 286" cx="6.946" cy="6.946" r="6.946" transform="translate(3162.387 -328.193)" fill="#969696"/>
    <circle id="Ellipse_287" data-name="Ellipse 287" cx="6.946" cy="6.946" r="6.946" transform="translate(3111.476 79.093)" fill="#969696"/>
    <circle id="Ellipse_288" data-name="Ellipse 288" cx="6.946" cy="6.946" r="6.946" transform="translate(3111.476 28.182)" fill="#fff"/>
    <circle id="Ellipse_289" data-name="Ellipse 289" cx="6.946" cy="6.946" r="6.946" transform="translate(3111.476 -22.728)" fill="#fff"/>
    <circle id="Ellipse_290" data-name="Ellipse 290" cx="6.946" cy="6.946" r="6.946" transform="translate(3111.476 -73.639)" fill="#fff"/>
    <circle id="Ellipse_291" data-name="Ellipse 291" cx="6.946" cy="6.946" r="6.946" transform="translate(3111.476 -124.55)" fill="#fff"/>
    <circle id="Ellipse_292" data-name="Ellipse 292" cx="6.946" cy="6.946" r="6.946" transform="translate(3111.476 -175.461)" fill="#fff"/>
    <circle id="Ellipse_293" data-name="Ellipse 293" cx="6.946" cy="6.946" r="6.946" transform="translate(3111.476 -226.372)" fill="#fff"/>
    <circle id="Ellipse_294" data-name="Ellipse 294" cx="6.946" cy="6.946" r="6.946" transform="translate(3111.476 -277.282)" fill="#fff"/>
    <circle id="Ellipse_295" data-name="Ellipse 295" cx="6.946" cy="6.946" r="6.946" transform="translate(3111.476 -328.193)" fill="#969696"/>
    <circle id="Ellipse_296" data-name="Ellipse 296" cx="6.946" cy="6.946" r="6.946" transform="translate(3060.565 79.093)" fill="#969696"/>
    <circle id="Ellipse_297" data-name="Ellipse 297" cx="6.946" cy="6.946" r="6.946" transform="translate(3060.565 28.182)" fill="#fff"/>
    <circle id="Ellipse_298" data-name="Ellipse 298" cx="6.946" cy="6.946" r="6.946" transform="translate(3060.565 -22.728)" fill="#fff"/>
    <circle id="Ellipse_299" data-name="Ellipse 299" cx="6.946" cy="6.946" r="6.946" transform="translate(3060.565 -73.639)" fill="#fff"/>
    <circle id="Ellipse_300" data-name="Ellipse 300" cx="6.946" cy="6.946" r="6.946" transform="translate(3060.565 -124.55)" fill="#fff"/>
    <circle id="Ellipse_301" data-name="Ellipse 301" cx="6.946" cy="6.946" r="6.946" transform="translate(3060.565 -175.461)" fill="#fff"/>
    <circle id="Ellipse_302" data-name="Ellipse 302" cx="6.946" cy="6.946" r="6.946" transform="translate(3060.565 -226.372)" fill="#fff"/>
    <circle id="Ellipse_303" data-name="Ellipse 303" cx="6.946" cy="6.946" r="6.946" transform="translate(3060.565 -277.282)" fill="#fff"/>
    <circle id="Ellipse_304" data-name="Ellipse 304" cx="6.946" cy="6.946" r="6.946" transform="translate(3060.565 -328.193)" fill="#969696"/>
    <circle id="Ellipse_305" data-name="Ellipse 305" cx="6.946" cy="6.946" r="6.946" transform="translate(3009.655 79.093)" fill="#969696"/>
    <circle id="Ellipse_306" data-name="Ellipse 306" cx="6.946" cy="6.946" r="6.946" transform="translate(3009.655 28.182)" fill="#fff"/>
    <circle id="Ellipse_307" data-name="Ellipse 307" cx="6.946" cy="6.946" r="6.946" transform="translate(3009.655 -22.728)" fill="#fff"/>
    <circle id="Ellipse_308" data-name="Ellipse 308" cx="6.946" cy="6.946" r="6.946" transform="translate(3009.655 -73.639)" fill="#fff"/>
    <circle id="Ellipse_309" data-name="Ellipse 309" cx="6.946" cy="6.946" r="6.946" transform="translate(3009.655 -124.55)" fill="#fff"/>
    <circle id="Ellipse_310" data-name="Ellipse 310" cx="6.946" cy="6.946" r="6.946" transform="translate(3009.655 -175.461)" fill="#fff"/>
    <circle id="Ellipse_311" data-name="Ellipse 311" cx="6.946" cy="6.946" r="6.946" transform="translate(3009.655 -226.372)" fill="#fff"/>
    <circle id="Ellipse_312" data-name="Ellipse 312" cx="6.946" cy="6.946" r="6.946" transform="translate(3009.655 -277.282)" fill="#fff"/>
    <circle id="Ellipse_313" data-name="Ellipse 313" cx="6.946" cy="6.946" r="6.946" transform="translate(3009.655 -328.193)" fill="#969696"/>
    <circle id="Ellipse_314" data-name="Ellipse 314" cx="6.946" cy="6.946" r="6.946" transform="translate(2958.744 79.093)" fill="#969696"/>
    <circle id="Ellipse_315" data-name="Ellipse 315" cx="6.946" cy="6.946" r="6.946" transform="translate(2958.744 28.182)" fill="#fff"/>
    <circle id="Ellipse_316" data-name="Ellipse 316" cx="6.946" cy="6.946" r="6.946" transform="translate(2958.744 -22.728)" fill="#fff"/>
    <circle id="Ellipse_317" data-name="Ellipse 317" cx="6.946" cy="6.946" r="6.946" transform="translate(2958.744 -73.639)" fill="#fff"/>
    <circle id="Ellipse_318" data-name="Ellipse 318" cx="6.946" cy="6.946" r="6.946" transform="translate(2958.744 -124.55)" fill="#fff"/>
    <circle id="Ellipse_319" data-name="Ellipse 319" cx="6.946" cy="6.946" r="6.946" transform="translate(2958.744 -175.461)" fill="#fff"/>
    <circle id="Ellipse_320" data-name="Ellipse 320" cx="6.946" cy="6.946" r="6.946" transform="translate(2958.744 -226.372)" fill="#fff"/>
    <circle id="Ellipse_321" data-name="Ellipse 321" cx="6.946" cy="6.946" r="6.946" transform="translate(2958.744 -277.282)" fill="#fff"/>
    <circle id="Ellipse_322" data-name="Ellipse 322" cx="6.946" cy="6.946" r="6.946" transform="translate(2958.744 -328.193)" fill="#969696"/>
    <circle id="Ellipse_323" data-name="Ellipse 323" cx="6.946" cy="6.946" r="6.946" transform="translate(2907.833 79.093)" fill="#969696"/>
    <circle id="Ellipse_324" data-name="Ellipse 324" cx="6.946" cy="6.946" r="6.946" transform="translate(2907.833 28.182)" fill="#969696"/>
    <circle id="Ellipse_325" data-name="Ellipse 325" cx="6.946" cy="6.946" r="6.946" transform="translate(2907.833 -22.728)" fill="#969696"/>
    <circle id="Ellipse_326" data-name="Ellipse 326" cx="6.946" cy="6.946" r="6.946" transform="translate(2907.833 -73.639)" fill="#969696"/>
    <circle id="Ellipse_327" data-name="Ellipse 327" cx="6.946" cy="6.946" r="6.946" transform="translate(2907.833 -124.55)" fill="#969696"/>
    <circle id="Ellipse_328" data-name="Ellipse 328" cx="6.946" cy="6.946" r="6.946" transform="translate(2907.833 -175.461)" fill="#969696"/>
    <circle id="Ellipse_329" data-name="Ellipse 329" cx="6.946" cy="6.946" r="6.946" transform="translate(2907.833 -226.372)" fill="#969696"/>
    <circle id="Ellipse_330" data-name="Ellipse 330" cx="6.946" cy="6.946" r="6.946" transform="translate(2907.833 -277.282)" fill="#969696"/>
    <circle id="Ellipse_331" data-name="Ellipse 331" cx="6.946" cy="6.946" r="6.946" transform="translate(2907.833 -328.193)" fill="#969696"/>
    <g id="Group_392-2" data-name="Group 392">
      <circle id="Ellipse_332" data-name="Ellipse 332" cx="4" cy="4" r="4" transform="translate(2859.868 -325.247)" fill="#3d3d3d"/>
      <circle id="Ellipse_333" data-name="Ellipse 333" cx="4" cy="4" r="4" transform="translate(2859.868 -274.336)" fill="#3d3d3d"/>
      <circle id="Ellipse_334" data-name="Ellipse 334" cx="4" cy="4" r="4" transform="translate(2859.868 -223.426)" fill="#3d3d3d"/>
      <circle id="Ellipse_335" data-name="Ellipse 335" cx="4" cy="4" r="4" transform="translate(2859.868 -172.515)" fill="#3d3d3d"/>
      <circle id="Ellipse_336" data-name="Ellipse 336" cx="4" cy="4" r="4" transform="translate(2859.868 -121.604)" fill="#3d3d3d"/>
      <circle id="Ellipse_337" data-name="Ellipse 337" cx="4" cy="4" r="4" transform="translate(2859.868 -70.693)" fill="#3d3d3d"/>
      <circle id="Ellipse_338" data-name="Ellipse 338" cx="4" cy="4" r="4" transform="translate(2859.868 -19.782)" fill="#3d3d3d"/>
      <circle id="Ellipse_339" data-name="Ellipse 339" cx="4" cy="4" r="4" transform="translate(2859.868 31.128)" fill="#3d3d3d"/>
      <circle id="Ellipse_340" data-name="Ellipse 340" cx="4" cy="4" r="4" transform="translate(2859.868 82.039)" fill="#3d3d3d"/>
    </g>
    <g id="Group_393" data-name="Group 393">
      <circle id="Ellipse_341" data-name="Ellipse 341" cx="4" cy="4" r="4" transform="translate(3318.065 -376.158)" fill="#3d3d3d"/>
      <circle id="Ellipse_342" data-name="Ellipse 342" cx="4" cy="4" r="4" transform="translate(3267.155 -376.158)" fill="#3d3d3d"/>
      <circle id="Ellipse_343" data-name="Ellipse 343" cx="4" cy="4" r="4" transform="translate(3216.244 -376.158)" fill="#3d3d3d"/>
      <circle id="Ellipse_344" data-name="Ellipse 344" cx="4" cy="4" r="4" transform="translate(3165.333 -376.158)" fill="#3d3d3d"/>
      <circle id="Ellipse_345" data-name="Ellipse 345" cx="4" cy="4" r="4" transform="translate(3114.422 -376.158)" fill="#3d3d3d"/>
      <circle id="Ellipse_346" data-name="Ellipse 346" cx="4" cy="4" r="4" transform="translate(3063.511 -376.158)" fill="#3d3d3d"/>
      <circle id="Ellipse_347" data-name="Ellipse 347" cx="4" cy="4" r="4" transform="translate(3012.601 -376.158)" fill="#3d3d3d"/>
      <circle id="Ellipse_348" data-name="Ellipse 348" cx="4" cy="4" r="4" transform="translate(2961.69 -376.158)" fill="#3d3d3d"/>
      <circle id="Ellipse_349" data-name="Ellipse 349" cx="4" cy="4" r="4" transform="translate(2910.779 -376.158)" fill="#3d3d3d"/>
    </g>
    <g id="Group_394" data-name="Group 394">
      <circle id="Ellipse_350" data-name="Ellipse 350" cx="4" cy="4" r="4" transform="translate(3368.976 -325.247)" fill="#3d3d3d"/>
      <circle id="Ellipse_351" data-name="Ellipse 351" cx="4" cy="4" r="4" transform="translate(3368.976 -274.336)" fill="#3d3d3d"/>
      <circle id="Ellipse_352" data-name="Ellipse 352" cx="4" cy="4" r="4" transform="translate(3368.976 -223.426)" fill="#3d3d3d"/>
      <circle id="Ellipse_353" data-name="Ellipse 353" cx="4" cy="4" r="4" transform="translate(3368.976 -172.515)" fill="#3d3d3d"/>
      <circle id="Ellipse_354" data-name="Ellipse 354" cx="4" cy="4" r="4" transform="translate(3368.976 -121.604)" fill="#3d3d3d"/>
      <circle id="Ellipse_355" data-name="Ellipse 355" cx="4" cy="4" r="4" transform="translate(3368.976 -70.693)" fill="#3d3d3d"/>
      <circle id="Ellipse_356" data-name="Ellipse 356" cx="4" cy="4" r="4" transform="translate(3368.976 -19.782)" fill="#3d3d3d"/>
      <circle id="Ellipse_357" data-name="Ellipse 357" cx="4" cy="4" r="4" transform="translate(3368.976 31.128)" fill="#3d3d3d"/>
      <circle id="Ellipse_358" data-name="Ellipse 358" cx="4" cy="4" r="4" transform="translate(3368.976 82.039)" fill="#3d3d3d"/>
    </g>
    <circle id="Ellipse_359" data-name="Ellipse 359" cx="4" cy="4" r="4" transform="translate(3368.976 132.95)" fill="#3d3d3d"/>
    <circle id="Ellipse_360" data-name="Ellipse 360" cx="4" cy="4" r="4" transform="translate(3368.976 -376.158)" fill="#3d3d3d"/>
    <circle id="Ellipse_361" data-name="Ellipse 361" cx="4" cy="4" r="4" transform="translate(2859.868 -376.158)" fill="#3d3d3d"/>
    <circle id="Ellipse_362" data-name="Ellipse 362" cx="4" cy="4" r="4" transform="translate(2859.868 132.95)" fill="#3d3d3d"/>
  </g>
</svg>
